<mxfile host="app.diagrams.net" modified="2024-01-31T10:37:45.123Z" agent="Mozilla/5.0 (Windows NT 10.0; Win64; x64) AppleWebKit/537.36 (KHTML, like Gecko) Chrome/121.0.0.0 Safari/537.36" etag="24arja2dr-hY5XqAHM2i" version="23.0.2" type="github">
  <diagram name="Page-1" id="5FHk3VTPuCTh6wEVp6AS">
    <mxGraphModel dx="2524" dy="746" grid="1" gridSize="10" guides="1" tooltips="1" connect="1" arrows="1" fold="1" page="1" pageScale="1" pageWidth="850" pageHeight="1100" math="0" shadow="0">
      <root>
        <mxCell id="0" />
        <mxCell id="1" parent="0" />
        <mxCell id="RR-nARv9a0r3RDeJWcUQ-16" style="edgeStyle=orthogonalEdgeStyle;rounded=0;orthogonalLoop=1;jettySize=auto;html=1;entryX=0;entryY=0.75;entryDx=0;entryDy=0;" edge="1" parent="1" source="RR-nARv9a0r3RDeJWcUQ-1" target="RR-nARv9a0r3RDeJWcUQ-14">
          <mxGeometry relative="1" as="geometry">
            <mxPoint x="250" y="660" as="targetPoint" />
            <Array as="points">
              <mxPoint x="180" y="660" />
              <mxPoint x="180" y="595" />
            </Array>
          </mxGeometry>
        </mxCell>
        <mxCell id="RR-nARv9a0r3RDeJWcUQ-17" style="edgeStyle=orthogonalEdgeStyle;rounded=0;orthogonalLoop=1;jettySize=auto;html=1;entryX=0;entryY=0.5;entryDx=0;entryDy=0;" edge="1" parent="1" source="RR-nARv9a0r3RDeJWcUQ-1" target="RR-nARv9a0r3RDeJWcUQ-15">
          <mxGeometry relative="1" as="geometry">
            <Array as="points">
              <mxPoint x="180" y="660" />
              <mxPoint x="180" y="720" />
            </Array>
          </mxGeometry>
        </mxCell>
        <mxCell id="RR-nARv9a0r3RDeJWcUQ-19" style="edgeStyle=orthogonalEdgeStyle;rounded=0;orthogonalLoop=1;jettySize=auto;html=1;exitX=0.5;exitY=0;exitDx=0;exitDy=0;entryX=0.5;entryY=0;entryDx=0;entryDy=0;" edge="1" parent="1" target="RR-nARv9a0r3RDeJWcUQ-18">
          <mxGeometry relative="1" as="geometry">
            <mxPoint x="930" y="580" as="targetPoint" />
            <mxPoint x="55" y="640" as="sourcePoint" />
            <Array as="points">
              <mxPoint x="50" y="640" />
              <mxPoint x="50" y="520" />
              <mxPoint x="850" y="520" />
              <mxPoint x="850" y="620" />
            </Array>
          </mxGeometry>
        </mxCell>
        <mxCell id="RR-nARv9a0r3RDeJWcUQ-1" value="" style="rounded=1;whiteSpace=wrap;html=1;" vertex="1" parent="1">
          <mxGeometry y="630" width="110" height="60" as="geometry" />
        </mxCell>
        <mxCell id="RR-nARv9a0r3RDeJWcUQ-14" value="" style="rounded=1;whiteSpace=wrap;html=1;" vertex="1" parent="1">
          <mxGeometry x="260" y="550" width="120" height="60" as="geometry" />
        </mxCell>
        <mxCell id="RR-nARv9a0r3RDeJWcUQ-509" style="edgeStyle=orthogonalEdgeStyle;rounded=0;orthogonalLoop=1;jettySize=auto;html=1;exitX=1;exitY=0.5;exitDx=0;exitDy=0;entryX=0;entryY=0.5;entryDx=0;entryDy=0;" edge="1" parent="1" source="RR-nARv9a0r3RDeJWcUQ-15" target="RR-nARv9a0r3RDeJWcUQ-23">
          <mxGeometry relative="1" as="geometry">
            <Array as="points">
              <mxPoint x="440" y="720" />
              <mxPoint x="440" y="650" />
            </Array>
          </mxGeometry>
        </mxCell>
        <mxCell id="RR-nARv9a0r3RDeJWcUQ-15" value="" style="rounded=1;whiteSpace=wrap;html=1;" vertex="1" parent="1">
          <mxGeometry x="255" y="690" width="125" height="60" as="geometry" />
        </mxCell>
        <mxCell id="RR-nARv9a0r3RDeJWcUQ-21" style="edgeStyle=orthogonalEdgeStyle;rounded=0;orthogonalLoop=1;jettySize=auto;html=1;" edge="1" parent="1">
          <mxGeometry relative="1" as="geometry">
            <mxPoint x="40" y="690" as="targetPoint" />
            <mxPoint x="880" y="680" as="sourcePoint" />
            <Array as="points">
              <mxPoint x="850" y="680" />
              <mxPoint x="850" y="820" />
              <mxPoint x="40" y="820" />
            </Array>
          </mxGeometry>
        </mxCell>
        <mxCell id="RR-nARv9a0r3RDeJWcUQ-18" value="" style="rounded=1;whiteSpace=wrap;html=1;" vertex="1" parent="1">
          <mxGeometry x="790" y="620" width="120" height="60" as="geometry" />
        </mxCell>
        <mxCell id="RR-nARv9a0r3RDeJWcUQ-516" style="edgeStyle=orthogonalEdgeStyle;rounded=0;orthogonalLoop=1;jettySize=auto;html=1;entryX=0;entryY=0.5;entryDx=0;entryDy=0;" edge="1" parent="1" source="RR-nARv9a0r3RDeJWcUQ-23" target="RR-nARv9a0r3RDeJWcUQ-18">
          <mxGeometry relative="1" as="geometry" />
        </mxCell>
        <mxCell id="RR-nARv9a0r3RDeJWcUQ-23" value="" style="rounded=1;whiteSpace=wrap;html=1;" vertex="1" parent="1">
          <mxGeometry x="570" y="620" width="120" height="60" as="geometry" />
        </mxCell>
        <mxCell id="RR-nARv9a0r3RDeJWcUQ-24" value="" style="rounded=1;whiteSpace=wrap;html=1;" vertex="1" parent="1">
          <mxGeometry x="570" y="750" width="120" height="60" as="geometry" />
        </mxCell>
        <mxCell id="RR-nARv9a0r3RDeJWcUQ-511" style="edgeStyle=orthogonalEdgeStyle;rounded=0;orthogonalLoop=1;jettySize=auto;html=1;exitX=1;exitY=0.5;exitDx=0;exitDy=0;entryX=0;entryY=0.5;entryDx=0;entryDy=0;" edge="1" parent="1" source="RR-nARv9a0r3RDeJWcUQ-15" target="RR-nARv9a0r3RDeJWcUQ-24">
          <mxGeometry relative="1" as="geometry">
            <mxPoint x="500" y="830" as="sourcePoint" />
            <mxPoint x="610" y="760" as="targetPoint" />
            <Array as="points">
              <mxPoint x="440" y="720" />
              <mxPoint x="440" y="780" />
            </Array>
          </mxGeometry>
        </mxCell>
        <mxCell id="RR-nARv9a0r3RDeJWcUQ-515" style="edgeStyle=orthogonalEdgeStyle;rounded=0;orthogonalLoop=1;jettySize=auto;html=1;entryX=0;entryY=0.5;entryDx=0;entryDy=0;" edge="1" parent="1" source="RR-nARv9a0r3RDeJWcUQ-514" target="RR-nARv9a0r3RDeJWcUQ-1">
          <mxGeometry relative="1" as="geometry" />
        </mxCell>
        <mxCell id="RR-nARv9a0r3RDeJWcUQ-514" value="" style="rounded=1;whiteSpace=wrap;html=1;" vertex="1" parent="1">
          <mxGeometry x="-180" y="630" width="120" height="60" as="geometry" />
        </mxCell>
      </root>
    </mxGraphModel>
  </diagram>
</mxfile>
